<svg xmlns="http://www.w3.org/2000/svg" fill="none" viewBox="0 0 180 22">
  <path fill="#fff" d="M4.281 21.31H0V0h4.281zM21.811 21.31h-4.005V14q0-3.22-2.818-3.22-1.353-.029-2.237.98-.856 1.008-.856 2.408v7.142H7.973V7.475h3.59l.139 1.764q1.63-2.157 4.419-2.1 5.69 0 5.69 6.833zM42.737 21.618q-3.398 0-5.441-1.989-2.017-2.016-2.017-5.209 0-3.165 2.044-5.209 2.072-2.044 5.414-2.044 3.37 0 5.414 2.044 2.07 2.045 2.071 5.21.001 3.192-2.044 5.208-2.016 1.989-5.441 1.989m0-3.585q1.713 0 2.569-1.036.884-1.065.884-2.577 0-1.456-.884-2.548-.885-1.093-2.57-1.093-1.656 0-2.54 1.093t-.884 2.548q0 1.456.856 2.549.885 1.065 2.569 1.064M65.51 21.31h-3.922v-7.422q0-3.024-2.347-3.024-1.133 0-1.796.896t-.663 2.156v7.394h-3.977V7.475h3.48l.277 1.568q1.05-1.876 3.59-1.876 2.846 0 3.977 2.576.912-1.4 1.962-1.988 1.05-.615 2.569-.616 2.43 0 3.922 1.512 1.52 1.512 1.519 5.097v7.562h-4.005v-7.478q0-2.885-2.072-2.885-1.133 0-1.823.869-.69.84-.69 2.072zM87.683 9.071l.138-1.596h3.73V21.31H87.96l-.221-1.737q-.636 1.008-1.851 1.513-1.188.504-2.348.532-3.12.028-5.082-1.905-1.962-1.96-1.961-5.32t2.016-5.322q2.044-1.96 5.138-1.904 1.325 0 2.403.504 1.105.504 1.63 1.4m-3.618 1.652q-1.547 0-2.569 1.009-1.022.98-1.022 2.66t1.022 2.66q1.022.981 2.569.981 1.602 0 2.596-1.064 1.022-1.065 1.022-2.437 0-1.596-.967-2.688-.94-1.12-2.651-1.12M100.711 11.62l2.265-4.117h4.751v.14l-4.337 6.721 4.586 6.862v.084h-4.751l-2.514-4.145-2.486 4.145h-4.778v-.084l4.612-6.862-4.364-6.721v-.14h4.751zM113.859 7.447h-3.978V21.31h3.978zM129.924 21.31h-3.922v-7.422q0-3.024-2.348-3.024-1.133 0-1.795.896-.664.896-.664 2.156v7.394h-3.977V7.475h3.48l.277 1.568q1.049-1.876 3.59-1.876 2.846 0 3.978 2.576.91-1.4 1.961-1.988 1.05-.615 2.569-.616 2.43 0 3.922 1.512 1.52 1.512 1.519 5.097v7.562h-4.005v-7.478q0-2.885-2.071-2.885-1.132 0-1.824.869-.69.84-.69 2.072zM141.49 7.475h4.005v7.31q0 3.22 2.817 3.22 1.355.028 2.21-.98.884-1.008.884-2.409V7.475h3.923V21.31h-3.591l-.138-1.82q-1.575 2.156-4.42 2.1-5.69 0-5.69-6.778zM171.41 21.31h-3.922v-7.422q0-3.024-2.348-3.024-1.133 0-1.796.896t-.663 2.156v7.394h-3.977V7.475h3.48l.277 1.568q1.049-1.876 3.59-1.876 2.846 0 3.978 2.576.911-1.4 1.961-1.988 1.049-.615 2.569-.616 2.43 0 3.922 1.512 1.52 1.512 1.519 5.097v7.562h-4.005v-7.478q0-2.885-2.072-2.885-1.132 0-1.823.869-.69.84-.69 2.072zM32.932 3.682q-1.523 0-1.922.705-.384.69-.384 1.753v1.32h3.296v3.537h-3.296v10.312h-4.17V10.997h-2.512V7.459h2.513V5.466q0-2.788 1.463-4.092T32.046.07q1.124 0 1.877.18v3.537q-.265-.09-.99-.105"/>
</svg>
